<?xml version="1.0" encoding="utf-8"?>
<!-- Generator: Adobe Illustrator 16.0.0, SVG Export Plug-In . SVG Version: 6.00 Build 0)  -->
<!DOCTYPE svg PUBLIC "-//W3C//DTD SVG 1.1//EN" "http://www.w3.org/Graphics/SVG/1.1/DTD/svg11.dtd">
<svg version="1.1" id="Capa_1" xmlns="http://www.w3.org/2000/svg" xmlns:xlink="http://www.w3.org/1999/xlink" x="0px" y="0px"
	 width="512px" height="512px" viewBox="0 0 512 512" enable-background="new 0 0 512 512" xml:space="preserve">
<g>
	<path fill="#FFFFFF" d="M357.997,172L300.836,50.302C298.947,27.214,279.566,9,256,9c-23.567,0-42.947,18.214-44.836,41.302
		L154.003,172H0v331h512V172H357.997z M256,39c8.271,0,15,6.729,15,15s-6.729,15-15,15c-8.271,0-15-6.729-15-15S247.729,39,256,39z
		 M226.594,88.019C234.487,94.852,244.765,99,256,99c11.234,0,21.514-4.148,29.406-10.981L324.852,172H187.148L226.594,88.019z
		 M482,473H30V202h452V473z"/>
	<path fill="#FFFFFF" d="M98,353h316v30H98V353z"/>
	<path fill="#FFFFFF" d="M98,413h316v30H98V413z"/>
	<path fill="#FFFFFF" d="M190.606,264.355l-21.212-21.211l-28.644,28.643l-13.644-13.643l-21.212,21.211l34.856,34.857
		L190.606,264.355z"/>
	<path fill="#FFFFFF" d="M298.355,264.355l-21.211-21.211L248.5,271.787l-13.644-13.643l-21.212,21.211l34.856,34.857
		L298.355,264.355z"/>
	<path fill="#FFFFFF" d="M406.106,264.355l-21.213-21.211l-28.644,28.643l-13.645-13.643l-21.212,21.211l34.856,34.857
		L406.106,264.355z"/>
</g>
</svg>
