<?xml version="1.0" encoding="utf-8"?>
<!-- Generator: Adobe Illustrator 23.0.1, SVG Export Plug-In . SVG Version: 6.00 Build 0)  -->
<svg version="1.1" id="Layer_1" xmlns="http://www.w3.org/2000/svg" xmlns:xlink="http://www.w3.org/1999/xlink" x="0px" y="0px"
	 viewBox="0 0 154 28" style="enable-background:new 0 0 154 28;" xml:space="preserve">
<style type="text/css">
	.st0{fill:#FFFFFF;}
</style>
<path class="st0" d="M0.8,0.6c1.9-0.3,4.4-0.5,7-0.5c4.3,0,7.1,0.8,9.3,2.4c2.4,1.8,3.8,4.6,3.8,8.6c0,4.4-1.6,7.4-3.8,9.2
	c-2.4,2-6,2.9-10.5,2.9c-2.7,0-4.6-0.2-5.8-0.3V0.6z M6,19.1c0.4,0.1,1.1,0.1,1.8,0.1c4.7,0,7.7-2.5,7.7-8c0-4.7-2.7-7.2-7.2-7.2
	C7.2,4.1,6.4,4.2,6,4.3V19.1z"/>
<path class="st0" d="M29.5,0.3V23h-5.2V0.3H29.5z"/>
<path class="st0" d="M38.3,4.6h-6.1V0.3h17.5v4.3h-6.2V23h-5.2V4.6z"/>
<g>
	<path class="st0" d="M57.1,13.9c1,0,1.7,0.2,2.2,0.5l0.4-1.5c-0.5-0.3-1.5-0.5-2.6-0.5c-3.4,0-5.5,2.3-5.5,5.5c0,3.2,2,5.3,5.1,5.3
		c1.4,0,2.5-0.3,3-0.6l-0.3-1.4c-0.5,0.2-1.2,0.5-2.3,0.5c-2,0-3.6-1.5-3.6-3.9C53.4,15.7,54.7,13.9,57.1,13.9z"/>
	<path class="st0" d="M66.1,12.4c-2.9,0-5.1,2-5.1,5.5c0,3.3,2.2,5.3,5,5.3c2.5,0,5.1-1.7,5.1-5.5C71,14.6,69,12.4,66.1,12.4z
		 M66,21.8c-1.8,0-3.1-1.7-3.1-4c0-2,1-4,3.2-4c2.2,0,3.1,2.2,3.1,4C69.1,20.1,67.8,21.8,66,21.8z"/>
	<path class="st0" d="M75.1,14.7L75.1,14.7l-0.1-2h-1.6c0.1,1,0.1,2,0.1,3.2V23h1.9v-5.5c0-0.3,0-0.6,0.1-0.9
		c0.3-1.4,1.2-2.4,2.5-2.4c0.3,0,0.4,0,0.6,0.1v-1.8c-0.2,0-0.3-0.1-0.5-0.1C76.7,12.4,75.6,13.3,75.1,14.7z"/>
	<path class="st0" d="M85.9,12.4c-1.7,0-2.9,0.7-3.7,2h0l-0.1-1.8h-1.7c0,1,0.1,2,0.1,3.4v11.2h1.9v-5.6h0c0.6,1,1.8,1.6,3.2,1.6
		c2.4,0,4.7-1.8,4.7-5.5C90.3,14.5,88.4,12.4,85.9,12.4z M85.2,21.7c-1.3,0-2.5-0.9-2.8-2.2c0-0.2-0.1-0.5-0.1-0.8V17
		c0-0.3,0.1-0.5,0.1-0.8c0.4-1.4,1.6-2.3,2.8-2.3c2,0,3.1,1.8,3.1,3.8C88.4,20.1,87.2,21.7,85.2,21.7z"/>
	<path class="st0" d="M97,12.4c-2.9,0-5.1,2-5.1,5.5c0,3.3,2.2,5.3,5,5.3c2.5,0,5.1-1.7,5.1-5.5C102,14.6,100,12.4,97,12.4z
		 M96.9,21.8c-1.8,0-3.1-1.7-3.1-4c0-2,1-4,3.2-4c2.2,0,3.1,2.2,3.1,4C100.1,20.1,98.7,21.8,96.9,21.8z"/>
	<path class="st0" d="M106.1,14.7L106.1,14.7l-0.1-2h-1.6c0.1,1,0.1,2,0.1,3.2V23h1.9v-5.5c0-0.3,0-0.6,0.1-0.9
		c0.3-1.4,1.2-2.4,2.5-2.4c0.3,0,0.4,0,0.6,0.1v-1.8c-0.2,0-0.3-0.1-0.5-0.1C107.7,12.4,106.5,13.3,106.1,14.7z"/>
	<path class="st0" d="M118.5,16.6c0-2.1-0.8-4.2-3.9-4.2c-1.3,0-2.5,0.4-3.4,0.9l0.4,1.2c0.7-0.5,1.7-0.8,2.7-0.8
		c2.1,0,2.3,1.5,2.3,2.4v0.2c-4,0-6.2,1.3-6.2,3.8c0,1.5,1.1,3,3.2,3c1.5,0,2.6-0.7,3.2-1.5h0.1l0.1,1.3h1.7
		c-0.1-0.7-0.2-1.6-0.2-2.5V16.6z M116.7,19.5c0,0.2,0,0.4-0.1,0.6c-0.3,0.9-1.2,1.7-2.5,1.7c-1,0-1.8-0.6-1.8-1.8
		c0-2,2.3-2.4,4.4-2.3V19.5z"/>
	<path class="st0" d="M123.7,9.7l-1.8,0.5v2.5h-1.6v1.4h1.6v5.6c0,1.2,0.2,2.1,0.7,2.7c0.4,0.5,1.2,0.8,2,0.8c0.7,0,1.3-0.1,1.7-0.3
		l-0.1-1.4c-0.2,0.1-0.6,0.1-1.1,0.1c-1,0-1.4-0.7-1.4-2v-5.6h2.7v-1.4h-2.7V9.7z"/>
	<rect x="128.5" y="12.6" class="st0" width="1.9" height="10.3"/>
	<path class="st0" d="M129.4,8.6c-0.7,0-1.2,0.5-1.2,1.2c0,0.6,0.5,1.2,1.1,1.2c0.7,0,1.2-0.5,1.2-1.2
		C130.6,9.1,130.1,8.6,129.4,8.6z"/>
	<path class="st0" d="M137.9,12.4c-2.9,0-5.1,2-5.1,5.5c0,3.3,2.2,5.3,5,5.3c2.5,0,5.1-1.7,5.1-5.5
		C142.8,14.6,140.8,12.4,137.9,12.4z M137.8,21.8c-1.8,0-3.1-1.7-3.1-4c0-2,1-4,3.2-4c2.2,0,3.1,2.2,3.1,4
		C140.9,20.1,139.6,21.8,137.8,21.8z"/>
	<path class="st0" d="M150.4,12.4c-1.7,0-2.9,1-3.4,1.9h0l-0.1-1.7h-1.7c0.1,0.9,0.1,1.7,0.1,2.8V23h1.9v-6.2c0-0.3,0-0.6,0.1-0.9
		c0.3-1,1.3-1.9,2.5-1.9c1.8,0,2.4,1.4,2.4,3.1v6h1.9v-6.2C154,13.3,151.8,12.4,150.4,12.4z"/>
</g>
</svg>
