<?xml version="1.0" encoding="utf-8"?>
<!-- Generator: Adobe Illustrator 16.0.0, SVG Export Plug-In . SVG Version: 6.00 Build 0)  -->
<!DOCTYPE svg PUBLIC "-//W3C//DTD SVG 1.1//EN" "http://www.w3.org/Graphics/SVG/1.1/DTD/svg11.dtd">
<svg version="1.1" id="Capa_1" xmlns="http://www.w3.org/2000/svg" xmlns:xlink="http://www.w3.org/1999/xlink" x="0px" y="0px"
	 width="27px" height="27px" viewBox="0 0 27 27" enable-background="new 0 0 27 27" xml:space="preserve">
<g>
	<g>
		<path stroke="#FFFFFF" stroke-miterlimit="10" d="M21.188,7.232H5.813c-0.219,0-0.396,0.177-0.396,0.396s0.177,0.396,0.396,0.396
			h15.375c0.219,0,0.396-0.177,0.396-0.396S21.406,7.232,21.188,7.232z"/>
	</g>
</g>
<g>
	<g>
		<path stroke="#FFFFFF" stroke-miterlimit="10" d="M21.188,11.542H5.813c-0.219,0-0.396,0.177-0.396,0.396
			c0,0.219,0.177,0.396,0.396,0.396h15.375c0.219,0,0.396-0.177,0.396-0.396C21.584,11.719,21.406,11.542,21.188,11.542z"/>
	</g>
</g>
<g>
	<g>
		<path stroke="#FFFFFF" stroke-miterlimit="10" d="M16.146,14.339h-5.293c-0.219,0-0.396,0.177-0.396,0.396
			s0.177,0.396,0.396,0.396h5.293c0.219,0,0.396-0.178,0.396-0.396S16.365,14.339,16.146,14.339z"/>
	</g>
</g>
<g>
	<g>
		<path stroke="#FFFFFF" stroke-miterlimit="10" d="M21.188,9.378H9.719c-0.219,0-0.396,0.177-0.396,0.396S9.5,10.17,9.719,10.17
			h11.468c0.219,0,0.396-0.177,0.396-0.396S21.406,9.378,21.188,9.378z"/>
	</g>
</g>
<g>
	<g>
		<path stroke="#FFFFFF" stroke-miterlimit="10" d="M7.877,9.378H5.813c-0.219,0-0.396,0.177-0.396,0.396s0.177,0.396,0.396,0.396
			h2.065c0.219,0,0.396-0.177,0.396-0.396S8.096,9.378,7.877,9.378z"/>
	</g>
</g>
<g>
	<g>
		<path fill="#FFFFFF" d="M24.957,6.563c-0.092-0.09-0.215-0.14-0.344-0.14c-0.001,0-0.001,0-0.001,0
			c-0.802,0-1.459-0.627-1.495-1.428c-0.012-0.261-0.226-0.464-0.486-0.464H4.275c-0.261,0-0.475,0.204-0.487,0.464
			C3.754,5.76,3.127,6.387,2.362,6.421C2.102,6.433,1.897,6.647,1.897,6.909v10.232c0,0.261,0.204,0.475,0.465,0.486
			c0.765,0.035,1.392,0.661,1.426,1.427c0.012,0.261,0.226,0.464,0.487,0.464h11.686c0.218,0,0.395-0.177,0.395-0.396
			c0-0.218-0.177-0.396-0.395-0.396H4.548c-0.164-0.953-0.905-1.695-1.858-1.859V7.181c0.953-0.164,1.695-0.905,1.858-1.858h17.811
			c0.17,0.983,0.962,1.743,1.952,1.873v6.722c0,0.218,0.178,0.396,0.396,0.396s0.396-0.178,0.396-0.396V6.911
			C25.103,6.779,25.051,6.655,24.957,6.563z"/>
	</g>
</g>
<g>
	<g>
		<path fill="#FFFFFF" d="M25.901,2.555H1.099C0.493,2.555,0,3.048,0,3.653v16.741c0,0.606,0.493,1.1,1.099,1.1h16.614l-0.588,1.232
			c-0.076,0.158-0.058,0.344,0.047,0.484c0.105,0.141,0.278,0.21,0.451,0.182l1.096-0.176l0.61,1.003
			c0.086,0.141,0.237,0.226,0.401,0.226c0.008,0,0.016,0,0.023-0.001c0.174-0.009,0.326-0.11,0.401-0.267l1.062-2.225l1.061,2.225
			c0.074,0.156,0.229,0.258,0.4,0.268c0.008,0,0.017,0,0.024,0c0.163,0,0.315-0.085,0.401-0.226l0.611-1.003l1.095,0.176
			c0.173,0.028,0.347-0.041,0.451-0.182s0.123-0.326,0.048-0.484l-0.588-1.232h1.181c0.605,0,1.099-0.493,1.099-1.1V3.653
			C27,3.048,26.507,2.555,25.901,2.555z M19.696,23.301l-0.414-0.68c-0.101-0.164-0.286-0.25-0.477-0.22l-0.703,0.112l0.741-1.552
			c0.291,0.298,0.707,0.459,1.139,0.419c0.148-0.015,0.297,0.025,0.417,0.111c0.04,0.027,0.081,0.053,0.124,0.077L19.696,23.301z
			 M21.311,20.953c-0.001,0-0.002,0.001-0.004,0.001c-0.06,0.009-0.121,0.009-0.181,0c-0.001,0-0.003-0.001-0.005-0.001
			c-0.093-0.014-0.184-0.05-0.264-0.106c-0.238-0.171-0.524-0.261-0.816-0.261c-0.044,0-0.088,0.002-0.133,0.006
			c-0.262,0.025-0.511-0.119-0.62-0.357c-0.049-0.106-0.11-0.205-0.183-0.295c-0.003-0.004-0.006-0.008-0.01-0.013
			s-0.008-0.01-0.012-0.015c-0.005-0.006-0.01-0.01-0.015-0.016c-0.131-0.15-0.292-0.273-0.477-0.357
			c-0.239-0.109-0.383-0.359-0.358-0.621c0.032-0.336-0.059-0.674-0.254-0.949c-0.152-0.215-0.152-0.502,0-0.717
			c0.195-0.275,0.286-0.613,0.254-0.949c-0.024-0.262,0.119-0.512,0.358-0.621c0.308-0.141,0.555-0.387,0.695-0.695
			c0.109-0.238,0.359-0.383,0.62-0.357c0.338,0.031,0.674-0.059,0.949-0.255c0.215-0.152,0.503-0.152,0.717,0
			c0.275,0.196,0.613,0.286,0.95,0.255c0.262-0.025,0.511,0.119,0.62,0.357c0.141,0.309,0.388,0.555,0.695,0.695
			c0.239,0.109,0.383,0.359,0.358,0.621c-0.032,0.336,0.059,0.674,0.255,0.949c0.152,0.215,0.152,0.502,0,0.717
			c-0.196,0.275-0.287,0.613-0.255,0.949c0.024,0.262-0.119,0.512-0.358,0.621c-0.184,0.084-0.346,0.207-0.476,0.356
			c-0.006,0.006-0.011,0.011-0.016,0.017c-0.004,0.005-0.007,0.009-0.011,0.014c-0.004,0.004-0.008,0.01-0.012,0.015
			c-0.071,0.09-0.133,0.188-0.182,0.294c-0.109,0.238-0.358,0.383-0.62,0.357c-0.337-0.031-0.674,0.059-0.95,0.255
			C21.494,20.904,21.404,20.939,21.311,20.953z M23.627,22.4c-0.189-0.029-0.377,0.057-0.477,0.221l-0.414,0.68l-0.826-1.731
			c0.042-0.024,0.083-0.05,0.123-0.077c0.121-0.086,0.27-0.126,0.416-0.111c0.432,0.04,0.848-0.121,1.141-0.419l0.74,1.552
			L23.627,22.4z M26.209,20.395c0,0.17-0.139,0.308-0.308,0.308h-1.56l-0.203-0.428c0.01-0.005,0.02-0.011,0.031-0.016
			c0.545-0.249,0.873-0.818,0.816-1.415c-0.014-0.147,0.025-0.295,0.111-0.416c0.348-0.489,0.348-1.146,0-1.635
			c-0.086-0.12-0.125-0.268-0.111-0.416c0.057-0.597-0.271-1.165-0.816-1.414c-0.135-0.063-0.244-0.17-0.306-0.306
			c-0.249-0.545-0.817-0.873-1.415-0.817c-0.147,0.014-0.295-0.025-0.416-0.111c-0.488-0.347-1.145-0.347-1.634,0
			c-0.121,0.086-0.269,0.125-0.417,0.111c-0.597-0.056-1.165,0.272-1.414,0.817c-0.063,0.136-0.17,0.243-0.305,0.306
			c-0.545,0.249-0.873,0.817-0.817,1.414c0.015,0.148-0.025,0.296-0.111,0.416c-0.348,0.489-0.348,1.146,0,1.635
			c0.086,0.12,0.126,0.268,0.111,0.416c-0.056,0.597,0.272,1.166,0.817,1.414c0.01,0.006,0.021,0.012,0.031,0.017l-0.205,0.428
			H1.099c-0.169,0-0.307-0.138-0.307-0.308V3.653c0-0.169,0.138-0.307,0.307-0.307h24.803c0.169,0,0.308,0.138,0.308,0.307V20.395z"
			/>
	</g>
</g>
<g>
	<g>
		<path fill="#FFFFFF" d="M21.188,15.151c-1.355,0-2.459,1.103-2.459,2.459s1.104,2.459,2.459,2.459s2.459-1.103,2.459-2.459
			S22.543,15.151,21.188,15.151z M21.188,19.277c-0.92,0-1.668-0.748-1.668-1.667s0.748-1.667,1.668-1.667s1.668,0.748,1.668,1.667
			S22.107,19.277,21.188,19.277z"/>
	</g>
</g>
</svg>
