<svg xmlns="http://www.w3.org/2000/svg" width="31" height="31" viewBox="0 0 31 31">
    <path fill="#9E9E9E" fill-rule="evenodd" d="M15.5 2.583c7.122 0 12.917 5.795 12.917 12.917S22.622 28.417 15.5 28.417 2.583 22.622 2.583 15.5 8.378 2.583 15.5 2.583zM15.5 0C6.94 0 0 6.94 0 15.5 0 24.06 6.94 31 15.5 31 24.06 31 31 24.06 31 15.5 31 6.94 24.06 0 15.5 0zm-2.583 10.333c0 .72-.578 1.302-1.292 1.302-.714 0-1.292-.58-1.292-1.302 0-.72.578-1.302 1.292-1.302.714 0 1.292.584 1.292 1.302zm0 2.584h-2.584v7.75h2.584v-7.75zm3.875 0h-2.584v7.75h2.584V16.97c0-2.224 2.586-2.43 2.586 0v3.696h2.58v-4.339c0-4.242-4.04-4.087-5.166-2v-1.411z"/>
</svg>
