<svg xmlns="http://www.w3.org/2000/svg" width="28" height="28" viewBox="0 0 28 28">
    <path fill="#FFF" fill-rule="evenodd" d="M14 2.333c6.433 0 11.667 5.234 11.667 11.667S20.433 25.667 14 25.667 2.333 20.433 2.333 14 7.567 2.333 14 2.333zM14 0C6.269 0 0 6.269 0 14c0 7.732 6.269 14 14 14 7.732 0 14-6.268 14-14 0-7.731-6.268-14-14-14zm7.583 10.241c-.514.229-1.068.383-1.65.453.595-.356 1.048-.919 1.264-1.59-.555.33-1.17.569-1.825.697-.522-.559-1.27-.908-2.095-.908-1.855 0-3.218 1.73-2.799 3.527-2.386-.12-4.503-1.263-5.92-3-.752 1.29-.389 2.98.89 3.835-.47-.016-.913-.145-1.3-.36-.031 1.33.923 2.575 2.304 2.853-.403.11-.847.135-1.297.049.365 1.14 1.428 1.97 2.683 1.994-1.21.947-2.73 1.37-4.255 1.19 1.272.816 2.78 1.291 4.402 1.291 5.334 0 8.346-4.504 8.165-8.545.562-.403 1.048-.91 1.433-1.486z"/>
</svg>
