<svg xmlns="http://www.w3.org/2000/svg" width="26" height="28" viewBox="0 0 26 28">
    <path fill="#FFF" fill-rule="evenodd" d="M.146 17.087L15.078 1.893C16.278.672 17.871 0 19.568 0c1.695 0 3.29.674 4.491 1.893l.084.085C25.34 3.199 26 4.82 26 6.546c0 1.726-.66 3.35-1.86 4.568L8.96 26.56C8.046 27.49 6.835 28 5.546 28c-1.29 0-2.504-.51-3.415-1.44l-.06-.062c-.914-.93-1.416-2.162-1.416-3.474 0-1.312.502-2.548 1.415-3.474L13.691 7.725c.602-.612 1.4-.95 2.25-.95.85 0 1.649.338 2.25.95l.04.04c1.241 1.263 1.241 3.318 0 4.579l-6.851 6.97c-.098.1-.226.15-.354.15-.128 0-.256-.05-.354-.15-.195-.198-.195-.52 0-.72l6.851-6.97c.852-.867.852-2.276 0-3.143l-.039-.04c-.412-.419-.96-.651-1.543-.651-.582 0-1.13.232-1.543.652l-.57.58L2.775 20.27c-1.493 1.518-1.493 3.992 0 5.511l.061.063c.724.736 1.685 1.142 2.707 1.142 1.022 0 1.985-.406 2.707-1.142l15.185-15.447c2.086-2.123 2.086-5.577 0-7.7l-.083-.084c-1.011-1.029-2.354-1.596-3.782-1.596-1.429 0-2.774.567-3.782 1.596L.856 17.807c-.195.198-.512.198-.707 0-.198-.198-.198-.521-.003-.72z"/>
</svg>
