<svg xmlns="http://www.w3.org/2000/svg" width="32" height="33" viewBox="0 0 32 33">
    <path fill="#ffffff" fill-rule="evenodd" d="M16 2.875c7.352 0 13.333 5.999 13.333 13.372S23.352 29.62 16 29.62 2.667 23.62 2.667 16.247 8.648 2.875 16 2.875zm0-2.674C7.164.201 0 7.386 0 16.247c0 8.862 7.164 16.046 16 16.046s16-7.184 16-16.046C32 7.386 24.836.201 16 .201zm-2.667 13.372h-2.666v2.674h2.666v8.023h4v-8.023h2.427l.24-2.674h-2.667v-1.114c0-.64.128-.892.744-.892H20V8.224h-3.205c-2.398 0-3.462 1.06-3.462 3.086v2.263z"/>
</svg>
