<?xml version="1.0" encoding="UTF-8"?>
<svg width="24px" height="25px" viewBox="0 0 24 25" version="1.1" xmlns="http://www.w3.org/2000/svg" xmlns:xlink="http://www.w3.org/1999/xlink">
    <!-- Generator: sketchtool 64 (101010) - https://sketch.com -->
    <title>D73D5EEA-DEAE-4F48-9DF0-50184D6F83E0</title>
    <desc>Created with sketchtool.</desc>
    <g id="Case-study-Detail-Home-(Using-template-n.3,-n.-1)" stroke="none" stroke-width="1" fill="none" fill-rule="evenodd">
        <g id="Account-Landing-Page" transform="translate(-1356.000000, -1120.000000)" fill="#9E9E9E">
            <g id="Component/Content/About-Client" transform="translate(0.000000, 960.000000)">
                <g id="social-icons" transform="translate(1356.000000, 116.187097)">
                    <g id="Icon/Social/Facebook" transform="translate(0.000000, 44.070968)">
                        <path d="M12,2.00322581 C17.514,2.00322581 22,6.49646129 22,12.0193548 C22,17.5422484 17.514,22.0354839 12,22.0354839 C6.486,22.0354839 2,17.5422484 2,12.0193548 C2,6.49646129 6.486,2.00322581 12,2.00322581 Z M12,0 C5.373,0 0,5.38166613 0,12.0193548 C0,18.6570435 5.373,24.0387097 12,24.0387097 C18.627,24.0387097 24,18.6570435 24,12.0193548 C24,5.38166613 18.627,0 12,0 Z M10,10.016129 L8,10.016129 L8,12.0193548 L10,12.0193548 L10,18.0290323 L13,18.0290323 L13,12.0193548 L14.82,12.0193548 L15,10.016129 L13,10.016129 L13,9.18178548 C13,8.70301452 13.096,8.51370968 13.558,8.51370968 L15,8.51370968 L15,6.00967742 L12.596,6.00967742 C10.798,6.00967742 10,6.80295484 10,8.3214 L10,10.016129 Z" id="Shape"></path>
                    </g>
                </g>
            </g>
        </g>
    </g>
</svg>