<?xml version="1.0" encoding="UTF-8"?>
<svg width="24px" height="25px" viewBox="0 0 24 25" version="1.1" xmlns="http://www.w3.org/2000/svg" xmlns:xlink="http://www.w3.org/1999/xlink">
    <!-- Generator: sketchtool 64 (101010) - https://sketch.com -->
    <title>5BE6C09B-5304-4C28-9C6B-EBAF0685B730</title>
    <desc>Created with sketchtool.</desc>
    <g id="Case-study-Detail-Home-(Using-template-n.3,-n.-1)" stroke="none" stroke-width="1" fill="none" fill-rule="evenodd">
        <g id="Account-Landing-Page" transform="translate(-1356.000000, -1076.000000)" fill="#9E9E9E">
            <g id="Component/Content/About-Client" transform="translate(0.000000, 960.000000)">
                <g id="social-icons" transform="translate(1356.000000, 116.187097)">
                    <g id="Icon/Social/LinkedIn">
                        <path d="M12,2.00322581 C17.514,2.00322581 22,6.49646129 22,12.0193548 C22,17.5422484 17.514,22.0354839 12,22.0354839 C6.486,22.0354839 2,17.5422484 2,12.0193548 C2,6.49646129 6.486,2.00322581 12,2.00322581 Z M12,0 C5.373,0 0,5.38166613 0,12.0193548 C0,18.6570435 5.373,24.0387097 12,24.0387097 C18.627,24.0387097 24,18.6570435 24,12.0193548 C24,5.38166613 18.627,0 12,0 Z M10,8.01290323 C10,8.57080161 9.553,9.02252903 9,9.02252903 C8.447,9.02252903 8,8.57180323 8,8.01290323 C8,7.45500484 8.447,7.00327742 9,7.00327742 C9.553,7.00327742 10,7.45600645 10,8.01290323 L10,8.01290323 Z M10,10.016129 L8,10.016129 L8,16.0258065 L10,16.0258065 L10,10.016129 Z M13,10.016129 L11,10.016129 L11,16.0258065 L13,16.0258065 L13,13.1601919 C13,11.4354145 15.002,11.2761581 15.002,13.1601919 L15.002,16.0258065 L17,16.0258065 L17,12.6613887 C17,9.37209194 13.872,9.49228548 13,11.1108919 L13,10.016129 Z" id="Shape"></path>
                    </g>
                </g>
            </g>
        </g>
    </g>
</svg>