<?xml version="1.0"?>
<svg xmlns="http://www.w3.org/2000/svg">

    <defs>
        <style><![CDATA[
            .sprite { display: none; }
            .sprite:target { display: inline; }
        ]]></style>
    </defs>

    <g class="sprite" id="close_icon">
        <path fill="#FFF" fill-rule="evenodd" d="M21.213 0l2.122 2.121-9.547 9.546 9.547 9.546-2.122 2.122-9.546-9.547-9.546 9.547L0 21.213l9.546-9.546L0 2.121 2.121 0l9.546 9.546L21.213 0z"/>
    </g>

    <g class="sprite" id="linkedin_icon">
        <path fill="#FFF" fill-rule="evenodd" d="M14 2.333c6.433 0 11.667 5.234 11.667 11.667S20.433 25.667 14 25.667 2.333 20.433 2.333 14 7.567 2.333 14 2.333zM14 0C6.269 0 0 6.269 0 14c0 7.732 6.269 14 14 14 7.732 0 14-6.268 14-14 0-7.731-6.268-14-14-14zm-2.333 9.333A1.17 1.17 0 0 1 10.5 10.51a1.17 1.17 0 0 1-1.167-1.176c0-.65.522-1.176 1.167-1.176s1.167.528 1.167 1.176zm0 2.334H9.333v7h2.334v-7zm3.5 0h-2.334v7h2.334v-3.338c0-2.01 2.335-2.195 2.335 0v3.338h2.331v-3.92c0-3.83-3.649-3.69-4.666-1.805v-1.275z"/>
    </g>

    <g class="sprite" id="facebook_icon">
        <path fill="#FFF" fill-rule="evenodd" d="M14 2.333c6.433 0 11.667 5.234 11.667 11.667S20.433 25.667 14 25.667 2.333 20.433 2.333 14 7.567 2.333 14 2.333zM14 0C6.269 0 0 6.269 0 14c0 7.732 6.269 14 14 14 7.732 0 14-6.268 14-14 0-7.731-6.268-14-14-14zm-2.333 11.667H9.333V14h2.334v7h3.5v-7h2.123l.21-2.333h-2.333v-.972c0-.558.112-.778.65-.778H17.5V7h-2.805c-2.097 0-3.028.924-3.028 2.693v1.974z"/>
    </g>

    <g class="sprite" id="twitter_icon">
        <path fill="#FFF" fill-rule="evenodd" d="M14 2.333c6.433 0 11.667 5.234 11.667 11.667S20.433 25.667 14 25.667 2.333 20.433 2.333 14 7.567 2.333 14 2.333zM14 0C6.269 0 0 6.269 0 14c0 7.732 6.269 14 14 14 7.732 0 14-6.268 14-14 0-7.731-6.268-14-14-14zm7.583 10.241a5.749 5.749 0 0 1-1.65.453 2.885 2.885 0 0 0 1.264-1.59 5.747 5.747 0 0 1-1.825.697 2.875 2.875 0 0 0-4.894 2.62 8.158 8.158 0 0 1-5.92-3.001 2.876 2.876 0 0 0 .89 3.835 2.867 2.867 0 0 1-1.3-.36c-.031 1.33.923 2.575 2.304 2.853-.403.11-.847.135-1.297.049a2.876 2.876 0 0 0 2.683 1.994 5.78 5.78 0 0 1-4.255 1.19 8.124 8.124 0 0 0 4.402 1.291c5.334 0 8.346-4.504 8.165-8.545a5.79 5.79 0 0 0 1.433-1.486z"/>
    </g>

    <g class="sprite" id="linkedin_icon_24">
        <path fill="#FFF" fill-rule="evenodd" d="M12 2c5.514 0 10 4.486 10 10s-4.486 10-10 10S2 17.514 2 12 6.486 2 12 2zm0-2C5.373 0 0 5.373 0 12s5.373 12 12 12 12-5.373 12-12S18.627 0 12 0zm-2 8c0 .557-.447 1.008-1 1.008-.553 0-1-.45-1-1.008 0-.557.447-1.008 1-1.008.553 0 1 .452 1 1.008zm0 2H8v6h2v-6zm3 0h-2v6h2v-2.861c0-1.722 2.002-1.881 2.002 0V16H17v-3.359c0-3.284-3.128-3.164-4-1.548V10z"/>
    </g>

    <g class="sprite" id="twitter_icon_24">
        <path fill="#FFF" fill-rule="evenodd" d="M12 2c5.514 0 10 4.486 10 10s-4.486 10-10 10S2 17.514 2 12 6.486 2 12 2zm0-2C5.373 0 0 5.373 0 12s5.373 12 12 12 12-5.373 12-12S18.627 0 12 0zm6.5 8.778a4.928 4.928 0 0 1-1.414.388 2.473 2.473 0 0 0 1.083-1.362 4.926 4.926 0 0 1-1.564.597 2.464 2.464 0 0 0-4.195 2.245 6.993 6.993 0 0 1-5.074-2.572 2.465 2.465 0 0 0 .762 3.287 2.457 2.457 0 0 1-1.114-.308c-.027 1.14.791 2.207 1.975 2.445a2.467 2.467 0 0 1-1.112.042 2.465 2.465 0 0 0 2.3 1.709A4.955 4.955 0 0 1 6.5 16.27a6.963 6.963 0 0 0 3.773 1.106c4.572 0 7.154-3.861 6.998-7.324.482-.346.899-.78 1.229-1.274z"/>
    </g>

    <g class="sprite" id="dribble_icon">
        <path fill="#FFF" fill-rule="evenodd" d="M12 2c5.514 0 10 4.486 10 10s-4.486 10-10 10S2 17.514 2 12 6.486 2 12 2zm0-2C5.373 0 0 5.373 0 12s5.373 12 12 12 12-5.373 12-12S18.627 0 12 0zm0 6a6 6 0 1 0 0 12 6 6 0 0 0 0-12zm4.942 5.72c-1.288-.211-2.472-.223-3.551-.036a22.612 22.612 0 0 0-.384-.84c1.154-.5 2.083-1.18 2.774-2.041a4.936 4.936 0 0 1 1.161 2.917zm-1.921-3.64c-.604.777-1.434 1.391-2.492 1.84a23.325 23.325 0 0 0-1.745-2.719A4.93 4.93 0 0 1 12 7.043c1.139 0 2.184.39 3.021 1.037zm-5.257-.497a22.525 22.525 0 0 1 1.77 2.69c-1.217.357-2.666.542-4.344.554a4.966 4.966 0 0 1 2.574-3.244zM7.043 12l.008-.127c1.923-.003 3.584-.225 4.975-.662.117.237.229.477.335.716-1.69.529-3.083 1.611-4.169 3.24A4.93 4.93 0 0 1 7.043 12zm1.914 3.905c.984-1.544 2.242-2.549 3.801-3.013a19.64 19.64 0 0 1 1.021 3.73 4.915 4.915 0 0 1-4.822-.717zm5.794.215a20.447 20.447 0 0 0-.96-3.449c.938-.132 1.971-.098 3.1.098a4.963 4.963 0 0 1-2.14 3.351z"/>
    </g>

    <g class="sprite" id="floating_contact" fill="none" fill-rule="evenodd">
        <path fill="#90E4BB" d="M0 0H70V70H0z"/>
        <path fill="#FFF" d="M20.682 24.66v20.68h29.432V24.66H20.682zm27.436 5.412l-12.458 9.72-12.484-9.74v-2.87h.036l12.448 9.71 12.45-9.71h.008v2.89z"/>
    </g>

    <g class="sprite" id="scroll_to_top" fill="none" fill-rule="evenodd">
        <path fill="#90E4BB" d="M0 0H70V70H0z"/>
        <path fill="#FFF" fill-rule="nonzero" d="M27.705 37.523l7-14 7 14h-6v12h-2v-12h-6z"/>
    </g>

    <g class="sprite" id="floating_contact_mobile" fill="none" fill-rule="evenodd">
        <rect width="48" height="48" fill="#90E4BB" rx="24"/>
        <path fill="#FFF" d="M14 17v14h20V17H14zm18.644 3.664l-8.466 6.58-8.483-6.594v-1.943h.024l8.46 6.574 8.459-6.574h.006v1.957z"/>
    </g>

    <g class="sprite" id="scroll_to_top_mobile" fill="none" fill-rule="evenodd">
        <rect width="48" height="48" fill="#90E4BB" rx="24"/>
        <path fill="#FFF" fill-rule="nonzero" d="M19.643 25.357l4.5-9 4.5 9h-4v6.286h-1v-6.285h-4z"/>
    </g>
    
</svg>

