<svg xmlns="http://www.w3.org/2000/svg" width="32" height="33" viewBox="0 0 32 33">
    <path fill="#ffffff" fill-rule="evenodd" d="M16 2.875c7.352 0 13.333 5.999 13.333 13.372S23.352 29.62 16 29.62 2.667 23.62 2.667 16.247 8.648 2.875 16 2.875zm0-2.674C7.164.201 0 7.386 0 16.247c0 8.862 7.164 16.046 16 16.046s16-7.184 16-16.046C32 7.386 24.836.201 16 .201zm8.667 11.738c-.588.262-1.222.438-1.886.519.679-.408 1.198-1.053 1.444-1.822-.634.377-1.337.652-2.085.799-.597-.64-1.452-1.04-2.395-1.04-2.12 0-3.677 1.982-3.198 4.042-2.727-.138-5.147-1.449-6.766-3.44-.86 1.48-.445 3.416 1.016 4.396-.537-.018-1.042-.166-1.485-.412-.036 1.524 1.055 2.951 2.633 3.27-.461.125-.968.154-1.482.055.417 1.308 1.632 2.259 3.066 2.286-1.382 1.085-3.12 1.57-4.862 1.365 1.453.934 3.177 1.479 5.03 1.479 6.096 0 9.539-5.163 9.331-9.794.643-.462 1.199-1.043 1.639-1.703z"/>
</svg>
